/* XPM */
static char * down_xpm[] = {
"68 16 17 1",
" 	c None",
".	c #030303",
"+	c #3E3E3E",
"@	c #424242",
"#	c #737373",
"$	c #BEBEBE",
"%	c #C5C5C5",
"&	c #D0D0D0",
"*	c #383838",
"=	c #DADADA",
"-	c #838383",
";	c #DEDEDE",
">	c #2A2A2A",
",	c #FCFCFC",
"'	c #A9A9A9",
")	c #5E5E5E",
"!	c #151515",
".................................................!>*>!..............",
"...!*@++++++++@)---)@+++++++++++++++++++++++++++)';,=-@++++++++@*!..",
"..!)'%$$$$$$$$%,,,,,,;%%$$$$$$$$$$$$$$$$$$$$$$%=,,,,,,&$$$$$$$$%')!.",
".!)'&,,,,,,,,,,,,,,,,,,,,,,,,,,,,,,,,,,,,,,,,,,,,,,,,,,,,,,,,,,,&')!",
".!#;,,$$$$$$$$,,,,,,,,,,,,=%$$$$$$$$$$$$$$$%;,,,,,,,,;%$$$$$$$$,,=#!",
".!#;,$-*+++++*-;,,,,,,,,,,,&)@++++++++++++@',,,,,,,,;-@+++++++'$,=#!",
".!#;,'>.......!#&,,,,,,,,,,,,'+!.........*',,,,,,,,$@.........*',=#!",
".!#;,'>...........*',,,,,,,,,,,'*.....!@',,,,,,,,;-!..........*',=#!",
".!#;,'>.............*-;,,,,,,,,,,'*.!)%,,,,,,,,,$@!...........*',=#!",
".!#;,'>...............!#;,,,,,,,,,&$;,,,,,,,,,,#!.............*',=#!",
".!#;,$-*+++++++++++++++@)',,,,,,,,,,,,,,,,,,,;-@++++++++++++++'$,=#!",
".!#;,,$$$$$$$$$$$$$$$$$$$%%;,,,,,,,,,,,,,,,,;&%$$$$$$$$$$$$$$$$,,=#!",
".!)'&,,,,,,,,,,,,,,,,,,,,,,,,,,,,,,,,,,,,,,,,,,,,,,,,,,,,,,,,,,,&')!",
"..!)'%$$$$$$$$$$$$$$$$$$$$$$$%&,,,,,,,,,=%$$$$$$$$$$$$$$$$$$$$$%')!.",
"...!*@+++++++++++++++++++++++++#&,,,,%#@+++++++++++++++++++++++@*!..",
"................................!)--)!.............................."};
