/* XPM */
static char * next_xpm[] = {
"32 32 17 1",
" 	c None",
".	c #020202",
"+	c #EAEAEA",
"@	c #979797",
"#	c #6B6B6B",
"$	c #3D3D3D",
"%	c #CFCFCF",
"&	c #171717",
"*	c #BBBBBB",
"=	c #FEFEFE",
"-	c #898989",
";	c #2B2B2B",
">	c #121212",
",	c #5E5E5E",
"'	c #F9F9F9",
")	c #B6B6B6",
"!	c #262626",
"....>&&&&&&&&&&&&&&&&&&&&&&>....",
"..>;-@@@@@@@@@@@@@@@@@@@@@@-;>..",
".>#%+'++++++++++++++++++++'+%#>.",
".;%'%*####################*%'%;.",
">-+%#!....................!#%+->",
"&@'*!......................!*'@&",
"&@+#........................#+@&",
"&@+#........................#+@&",
"&@+#.....$)%#&..............#+@&",
"&@+#....>@=='@..............#+@&",
"&@+#....>@====->............#+@&",
"&@+#.....$%===+-............#+@&",
"&@+#......&@====@;..........#+@&",
"&@+#.......!%==='%;.........#+@&",
"&@+#........&@'===+,........#+@&",
"&@+#.........&@'===+;.......#+@&",
"&@+#..........!)====-.......#+@&",
"&@+#.........$*'====#.......#+@&",
"&@+#........#+====+@>.......#+@&",
"&@+#.......,+====%$>........#+@&",
"&@+#.....>)====%,;&.........#+@&",
"&@+#.....$'===%$&@@&........#+@&",
"&@+#.....$+='*;.&@@&........#+@&",
"&@+#.....>#@#!...&&.........#+@&",
"&@+#........................#+@&",
"&@+#........................#+@&",
"&@'*!......................!*'@&",
">-+%#!....................!#%+->",
".;%'%*####################*%'%;.",
".>#%+'++++++++++++++++++++'+%#>.",
"..>;-@@@@@@@@@@@@@@@@@@@@@@-;>..",
"....>&&&&&&&&&&&&&&&&&&&&&&>...."};
