/* XPM */
static char * previous_xpm[] = {
"32 32 17 1",
" 	c None",
".	c #020202",
"+	c #EAEAEA",
"@	c #979797",
"#	c #6B6B6B",
"$	c #626262",
"%	c #2B2B2B",
"&	c #D5D5D5",
"*	c #171717",
"=	c #C5C5C5",
"-	c #FEFEFE",
";	c #BABABA",
">	c #898989",
",	c #121212",
"'	c #F9F9F9",
")	c #B1B1B1",
"!	c #464646",
"....,**********************,....",
"..,%>@@@@@@@@@@@@@@@@@@@@@@>%,..",
".,#=+'++++++++++++++++++++'+=#,.",
".%='&;####################;&'=%.",
",>+&$%....................%$&+>,",
"*@';%......................%;'@*",
"*@+#.............*>&)%......#+@*",
"*@+#............%)'-'#......#+@*",
"*@+#...........!&---'$......#+@*",
"*@+#..........$&----@*......#+@*",
"*@+#........%@----+>........#+@*",
"*@+#.......!='---+$,........#+@*",
"*@+#.....*@'----)%..........#+@*",
"*@+#....,@----'@*...........#+@*",
"*@+#....%+---'$.............#+@*",
"*@+#....%&---'@%............#+@*",
"*@+#.....#'----'#*..........#+@*",
"*@+#.....,$=----';%.........#+@*",
"*@+#........#&----'@%.......#+@*",
"*@+#.........!&-----)%......#+@*",
"*@+#..........,$&----@......#+@*",
"*@+#............%@---=......#+@*",
"*@+#..............$;=$......#+@*",
"*@+#...............*%,......#+@*",
"*@+#........................#+@*",
"*@+#........................#+@*",
"*@';%......................%;'@*",
",>+&$%....................%$&+>,",
".%='&;####################;&'=%.",
".,#=+'++++++++++++++++++++'+=#,.",
"..,%>@@@@@@@@@@@@@@@@@@@@@@>%,..",
"....,**********************,...."};
