/* XPM */
static char * quit_xpm[] = {
"32 32 17 1",
" 	c None",
".	c #030303",
"+	c #E9E9E9",
"@	c #969696",
"#	c #6C6C6C",
"$	c #464646",
"%	c #D6D6D6",
"&	c #2C2C2C",
"*	c #161616",
"=	c #C5C5C5",
"-	c #EEEEEE",
";	c #BBBBBB",
">	c #898989",
",	c #121212",
"'	c #B0B0B0",
")	c #5D5D5D",
"!	c #FBFBFB",
"....,**********************,....",
"..,&>@@@@@@@@@@@@@@@@@@@@@@>&,..",
".,#=+-++++++++++++++++++++-+=#,.",
".&=!%;####################;%!=&.",
",>+%#&....................&#%+>,",
"*@-;&......................&;-@*",
"*@+#..,$&,..........*&,.....#+@*",
"*@+#..#%%>.........&;%>*....#+@*",
"*@+#..=!!!'$......&=!!+$....#+@*",
"*@+#..>!!!!%).....@!!!%&....#+@*",
"*@+#..*>!!!!->,.*>!!!!).....#+@*",
"*@+#...,#+!!!!@&@-!!!@......#+@*",
"*@+#.....&;!!!!!!!!!@,......#+@*",
"*@+#......&@!!!!!!!'*.......#+@*",
"*@+#........>-!!!!=&........#+@*",
"*@+#........)+!!!!-@,.......#+@*",
"*@+#.......)!!!!!!!!'&......#+@*",
"*@+#......)%!!!%;!!!!;*.....#+@*",
"*@+#.....$-!!!%$,#-!!!=$....#+@*",
"*@+#....&%!!!+$...>-!!!=*...#+@*",
"*@+#....#!!!%$.....)-!!!$...#+@*",
"*@+#....#-!!).......>+!%&...#+@*",
"*@+#....*)>$.........*$&....#+@*",
"*@+#........................#+@*",
"*@+#........................#+@*",
"*@+#........................#+@*",
"*@-;&......................&;-@*",
",>+%#&....................&#%+>,",
".&=!%;####################;%!=&.",
".,#=+-++++++++++++++++++++-+=#,.",
"..,&>@@@@@@@@@@@@@@@@@@@@@@>&,..",
"....,**********************,...."};
