/* XPM */
static char * turn_left_xpm[] = {
"32 32 17 1",
" 	c None",
".	c #030303",
"+	c #E3E3E3",
"@	c #979797",
"#	c #6C6C6C",
"$	c #5D5D5D",
"%	c #D6D6D6",
"&	c #2B2B2B",
"*	c #161616",
"=	c #C5C5C5",
"-	c #EAEAEA",
";	c #FCFCFC",
">	c #BABABA",
",	c #878787",
"'	c #121212",
")	c #B0B0B0",
"!	c #3F3F3F",
"....'**********************'....",
"..'&,@@@@@@@@@@@@@@@@@@@@@@,&'..",
".'#=+----------------------+=#'.",
".&=;%>####################>%;=&.",
"',+%#&.........'!$#,$.....&#%+,'",
"*@->&........'#)+;;;%!.....&>-@*",
"*@-#.......$%;;;;;;;-!......#-@*",
"*@-#.....',+;;;;;;;;@*......#-@*",
"*@-#.....#;;;;;;;;;+$*......#-@*",
"*@-#.....,;;;;;;;;;;;>'.....#-@*",
"*@-#.....!-;;;;;;;;;;;@'....#-@*",
"*@-#......$%;;;;;+=;;;+!....#-@*",
"*@-#........$%;;;;>);;;,....#-@*",
"*@-#.........$;;;;;#;;;>....#-@*",
"*@-#..........,%;;%&-;;+....#-@*",
"*@-#...........&$$&.-;;%....#-@*",
"*@-#...............*;;;)....#-@*",
"*@-#...............#;;;#....#-@*",
"*@-#..............!%;;+!....#-@*",
"*@-#.....',@$'...&=;;;)'....#-@*",
"*@-#.....#;;;;-+-;;;;-&.....#-@*",
"*@-#.....#;;;;;;;;;;-#......#-@*",
"*@-#.....')-;;;;;;;%$.......#-@*",
"*@-#......*!,>++%)$&........#-@*",
"*@-#........................#-@*",
"*@-#........................#-@*",
"*@->&......................&>-@*",
"',+%#&....................&#%+,'",
".&=;%>####################>%;=&.",
".'#=+----------------------+=#'.",
"..'&,@@@@@@@@@@@@@@@@@@@@@@,&'..",
"....'**********************'...."};
