/* XPM */
static char * up_xpm[] = {
"68 16 17 1",
" 	c None",
".	c #030303",
"+	c #3E3E3E",
"@	c #4D4D4D",
"#	c #737373",
"$	c #BEBEBE",
"%	c #C5C5C5",
"&	c #D0D0D0",
"*	c #393939",
"=	c #DADADA",
"-	c #7F7F7F",
";	c #DEDEDE",
">	c #2F2F2F",
",	c #FCFCFC",
"'	c #AAAAAA",
")	c #191919",
"!	c #686868",
".............................)>+>)..................................",
"...)*++++++++++++++++++++++@-;,,,,$!++++++++++++++++++++++++++++*...",
"...@'%$$$$$$$$$$$$$$$$$$$%%;,,,,,,,,;%$$$$$$$$$$$$$$$$$$$$$$$$$%'@..",
".)!'&,,,,,,,,,,,,,,,,,,,,,,,,,,,,,,,,,,,,,,,,,,,,,,,,,,,,,,,,,,,&'@.",
".)#;,,$$$$$$$$$$$$$$$$%=,,,,,,,,,,,,,,,;%%$$$$$$$$$$$$$$$$$$$$$,,=!)",
".)#;,$'*+++++++++++@#$,,,,,,,,,,,,,,,,,,,'@+++++++++++++++++++'$,=!)",
".)#;,'>..........)!$,,,,,,,,,,;-',,,,,,,,,&@..................*',=!)",
".)#;,'>.........@%,,,,,,,,,,,'>..@$,,,,,,,,,'@................*',=!)",
".)#;,'>.......*$,,,,,,,,,,,'>.....>-,,,,,,,,,,'>..............*',=!)",
".)#;,'>.....)-,,,,,,,,,,,$@.........+',,,,,,,,,;!)............*',=!)",
".)#;,$'*++@#;,,,,,,,,,,'!++++++++++++@-&,,,,,,,,,%#+++++++++++'$,=!)",
".)#;,,$$$%;,,,,,,,,,,;%%$$$$$$$$$$$$$$$%=,,,,,,,,,,;%%$$$$$$$$$,,=!)",
".)!'&,,,,,,,,,,,,,,,,,,,,,,,,,,,,,,,,,,,,,,,,,,,,,,,,,,,,,,,,,,,&'@.",
"...@'%$$$&,,,,,,,;%%$$$$$$$$$$$$$$$$$$$$$$%%,,,,,,,,,&$$$$$$$$$%'@..",
"...)*++++!;,,,,;-@++++++++++++++++++++++++++@-;,,,,,&#*+++++++++*...",
"..........@&,=#)..............................)-;,,;-).............."};
