/* XPM */
static char * zoomplus_xpm[] = {
"32 32 17 1",
" 	c None",
".	c #030303",
"+	c #E1E1E1",
"@	c #989898",
"#	c #6B6B6B",
"$	c #5C5C5C",
"%	c #3E3E3E",
"&	c #CECECE",
"*	c #181818",
"=	c #EAEAEA",
"-	c #B9B9B9",
";	c #EEEEEE",
">	c #888888",
",	c #2B2B2B",
"'	c #B0B0B0",
")	c #121212",
"!	c #FBFBFB",
"....)**********************)....",
"..),>@@@@@@@@@@@@@@@@@@@@@@>,)..",
".)#&+;====================;+&#).",
".,&!&-####################-&!&,.",
")>+&#,....................,#&+>)",
"*@;-,......................,-;@*",
"*@=#.....)%>=!!!-$%,........#=@*",
"*@=#....%';!!!!!!!;+@%......#=@*",
"*@=#...$!!!+'>#@+;!!!!#)....#=@*",
"*@=#..%+!!>,....,%$@!!;>....#=@*",
"*@=#..'!+%..........%&!!#...#=@*",
"*@=#..;!@............,;!&,..#=@*",
"*@=#..!!%.....&=,.....$;!@..#=@*",
"*@=#.,!!......!!$.....*-!+..#=@*",
"*@=#.$!!..,$$$!!@$$%...@!;..#=@*",
"*@=#.#!!..#!!!!!!!!+...@!;..#=@*",
"*@=#.#!!..%@''!!&-&'...@!+..#=@*",
"*@=#.#!!......!!#),*..)-!'..#=@*",
"*@=#.,!!$.....!!#.....%=!$..#=@*",
"*@=#..;!&,....=!%.....>!=%..#=@*",
"*@=#..#;!-,...,%.....,!!@...#=@*",
"*@=#..)'!!-%........,'!!,...#=@*",
"*@=#...)'!!!'$$%%%$#+!!@....#=@*",
"*@=#....*>!!!!!;+=!!!!',....#=@*",
"*@=#......*>-+!!!!!=-#......#=@*",
"*@=#........)%%$$$$%).......#=@*",
"*@;-,......................,-;@*",
")>+&#,....................,#&+>)",
".,&!&-####################-&!&,.",
".)#&+;====================;+&#).",
"..),>@@@@@@@@@@@@@@@@@@@@@@>,)..",
"....)**********************)...."};
