/* XPM */
static char * zoomtofit_xpm[] = {
"32 32 17 1",
" 	c None",
".	c #030303",
"+	c #DDDDDD",
"@	c #979797",
"#	c #6C6C6C",
"$	c #595959",
"%	c #3E3E3E",
"&	c #CFCFCF",
"*	c #181818",
"=	c #BCBCBC",
"-	c #FDFDFD",
";	c #888888",
">	c #B4B4B4",
",	c #2B2B2B",
"'	c #121212",
")	c #ABABAB",
"!	c #EAEAEA",
"....'**********************'....",
"..',;@@@@@@@@@@@@@@@@@@@@@@;,'..",
".'#&+!!!!!!!!!!!!!!!!!!!!!!+&#'.",
".,&-+=####################=+-&,.",
"';++#,....................,#++;'",
"*@!=,......................,=!@*",
"*@!#........................#!@*",
"*@!#..*;)))@;,.....,$##$*...#!@*",
"*@!#..$------@....,=----=*..#!@*",
"*@!#..$----!+#....*)----+,..#!@*",
"*@!#..$-!!--#'.....'@---+%..#!@*",
"*@!#..$->$--!#....,@----+%..#!@*",
"*@!#..%+;.%&--$..,&--=#-!%..#!@*",
"*@!#..'%*..%!->'*)--@,%++%..#!@*",
"*@!#........%>;.,&!;...%%...#!@*",
"*@!#.........'...%%'........#!@*",
"*@!#........................#!@*",
"*@!#.......,%'..............#!@*",
"*@!#......$!!%...,$%........#!@*",
"*@!#.%#*.%!-!%...;-!;'......#!@*",
"*@!#.)-$$+-!$....#!--=$&!%..#!@*",
"*@!#.)-;+-!#.....'%>--+--$..#!@*",
"*@!#.)---->,.......,=----$..#!@*",
"*@!#.)----->......'@!----$..#!@*",
"*@!#.@--!!+;......')-----$..#!@*",
"*@!#.,$$%%,'.......,$#))$*..#!@*",
"*@!=,......................,=!@*",
"';++#,....................,#++;'",
".,&-+=####################=+-&,.",
".'#&+!!!!!!!!!!!!!!!!!!!!!!+&#'.",
"..',;@@@@@@@@@@@@@@@@@@@@@@;,'..",
"....'**********************'...."};
