/* XPM */
static char * zoomminus_xpm[] = {
"32 32 17 1",
" 	c None",
".	c #020202",
"+	c #E8E8E8",
"@	c #979797",
"#	c #6B6B6B",
"$	c #535353",
"%	c #3C3C3C",
"&	c #D0D0D0",
"*	c #181818",
"=	c #FDFDFD",
"-	c #B9B9B9",
";	c #888888",
">	c #2C2C2C",
",	c #B0B0B0",
"'	c #121212",
")	c #F2F2F2",
"!	c #656565",
"....'**********************'....",
"..'>;@@@@@@@@@@@@@@@@@@@@@@;>'..",
".'#&+)++++++++++++++++++++)+&#'.",
".>&=&-####################-&=&>.",
"';+&!>....................>!&+;'",
"*@)->......................>-)@*",
"*@+#.....'$;+==)-!$>........#+@*",
"*@+#....%,)=======)+@%......#+@*",
"*@+#...$)==&,;#@+)===)#'....#+@*",
"*@+#..%&==;>....>$$@==);....#+@*",
"*@+#..,=+$..........%&==!...#+@*",
"*@+#..)=@............>)=&>..#+@*",
"*@+#..==%.............$)=@..#+@*",
"*@+#.*==..............*-=&..#+@*",
"*@+#.!==..%$$$$$$$$%...@=)..#+@*",
"*@+#.#==..+========+...@=)..#+@*",
"*@+#.#==..,&++++++&,...@=+..#+@*",
"*@+#.!==..*>%%%%%%>*..'-=,..#+@*",
"*@+#.>==!.............%+=$..#+@*",
"*@+#..)=&*............;=+%..#+@*",
"*@+#..#)=-*..........>)=@...#+@*",
"*@+#..',==-%........*,==>...#+@*",
"*@+#...',)==,!$%%%$!+==@....#+@*",
"*@+#....*;=====)++)===,*....#+@*",
"*@+#......*;-+)====+-!......#+@*",
"*@+#........'%$$$$$%'.......#+@*",
"*@)->......................>-)@*",
"';+&!>....................>!&+;'",
".>&=&-####################-&=&>.",
".'#&+)++++++++++++++++++++)+&#'.",
"..'>;@@@@@@@@@@@@@@@@@@@@@@;>'..",
"....'**********************'...."};
