/* XPM */
static char * open_xpm[] = {
"32 32 17 1",
" 	c None",
".	c #020202",
"+	c #E2E2E2",
"@	c #989898",
"#	c #6B6B6B",
"$	c #525252",
"%	c #404040",
"&	c #D9D9D9",
"*	c #171717",
"=	c #C5C5C5",
"-	c #EAEAEA",
";	c #F1F1F1",
">	c #BABABA",
",	c #898989",
"'	c #2C2C2C",
")	c #121212",
"!	c #FBFBFB",
"....)**********************)....",
"..)',@@@@@@@@@@@@@@@@@@@@@@,')..",
".)#=+;--------------------;+=#).",
".'=!&>####################>&!='.",
"),+&#'....................'#&+,)",
"*@;>'......................'>;@*",
"*@-#...)$$$$$$$$$$$$$$$$$$).#-@*",
"*@-#...$!!!!;;;;;;;;!!!!!;#.#-@*",
"*@-#..'&!&+;;;;;;;;;;-++!!@.#-@*",
"*@-#..$;;$'%$$$$$$$$$%%%;!@.#-@*",
"*@-#..$;;$...........)$$;!@.#-@*",
"*@-#..$;;$...........$!!!!,.#-@*",
"*@-#..$;;$...........'@>!!#.#-@*",
"*@-#..$;;$..............!!%.#-@*",
"*@-#..$;;$..............!!..#-@*",
"*@-#..$;;$.'@>@@,%......!!..#-@*",
"*@-#..$;;$.,!!!!!&.....%!!..#-@*",
"*@-#..$;;$.@!!!!!>.....#!!..#-@*",
"*@-#..$;;$.@!!!!+%.....@!;..#-@*",
"*@-#..$;;$.@!!!!+%.....@!;..#-@*",
"*@-#..$;;$.@!!!!&'.....@!&..#-@*",
"*@-#..$;;$.@!!!!>*.....>!>..#-@*",
"*@-#..$;!;;;!!!!=$$%%%%>!,..#-@*",
"*@-#..%+!!!!!!!!!!;;+++;!$..#-@*",
"*@-#...%@@@@@@@>>+;!!!!!+%..#-@*",
"*@-#............)'$$$$$$%...#-@*",
"*@;>'......................'>;@*",
"),+&#'....................'#&+,)",
".'=!&>####################>&!='.",
".)#=+;--------------------;+=#).",
"..)',@@@@@@@@@@@@@@@@@@@@@@,')..",
"....)**********************)...."};
