/* XPM */
static char * original_xpm[] = {
"32 32 17 1",
" 	c None",
".	c #030303",
"+	c #DEDEDE",
"@	c #979797",
"#	c #6B6B6B",
"$	c #5A5A5A",
"%	c #343434",
"&	c #D0D0D0",
"*	c #161616",
"=	c #FDFDFD",
"-	c #BCBCBC",
";	c #878787",
">	c #B2B2B2",
",	c #121212",
"'	c #262626",
")	c #AAAAAA",
"!	c #EAEAEA",
"....,**********************,....",
"..,';@@@@@@@@@@@@@@@@@@@@@@;',..",
".,#&+!!!!!!!!!!!!!!!!!!!!!!+&#,.",
".'&=&-####################-&=&'.",
",;+&#'....................'#&+;,",
"*@!-'...%$%................'-!@*",
"*@!#...$==&%................#!@*",
"*@!#..*>===$........,#@%....#!@*",
"*@!#..;====$........@==!....#!@*",
"*@!#.%!====$.......$!===....#!@*",
"*@!#.>=====$..,,..$+====....#!@*",
"*@!#,-=====$.%)@*.&=====....#!@*",
"*@!#.#+!===$,)==#*======....#!@*",
"*@!#.,%)==!$,@=!$'======....#!@*",
"*@!#...)==+%.*#$..#>+===....#!@*",
"*@!#...)==+%.......,&==!....#!@*",
"*@!#...)==+%..,.....+==!....#!@*",
"*@!#...)==+%,#>#....!==!....#!@*",
"*@!#...)==&'%+=!'...!==+....#!@*",
"*@!#...)==-*%&=&*...!==+....#!@*",
"*@!#...)==)..%#%....===-....#!@*",
"*@!#...)==).........===>....#!@*",
"*@!#...%&&%.........+==;....#!@*",
"*@!#....''..........#+-%....#!@*",
"*@!#........................#!@*",
"*@!#........................#!@*",
"*@!-'......................'-!@*",
",;+&#'....................'#&+;,",
".'&=&-####################-&=&'.",
".,#&+!!!!!!!!!!!!!!!!!!!!!!+&#,.",
"..,';@@@@@@@@@@@@@@@@@@@@@@;',..",
"....,**********************,...."};
