/* XPM */
static char * turn_right_xpm[] = {
"32 32 17 1",
" 	c None",
".	c #020202",
"+	c #E3E3E3",
"@	c #979797",
"#	c #6C6C6C",
"$	c #5D5D5D",
"%	c #424242",
"&	c #D8D8D8",
"*	c #181818",
"=	c #C5C5C5",
"-	c #EAEAEA",
";	c #FDFDFD",
">	c #8A8A8A",
",	c #BABABA",
"'	c #2B2B2B",
")	c #121212",
"!	c #B3B3B3",
"....)**********************)....",
"..)'>@@@@@@@@@@@@@@@@@@@@@@>')..",
".)#=+----------------------+=#).",
".'=;&,####################,&;='.",
")>+&#'...*''..............'#&+>)",
"*@-,'...'!+&!@#$$#>>@@>'...',-@*",
"*@-#....#;;;;;;;;;;;;;;-'...#-@*",
"*@-#....$+;;;;;;;;;;;;;;>...#-@*",
"*@-#....)%&;;;;;;;;;;;;;@...#-@*",
"*@-#.....%+;;;;;;;;;;;;+%...#-@*",
"*@-#....%&;;;;+-;;;;;-@*....#-@*",
"*@-#....!;;;+>#-;;;;,$).....#-@*",
"*@-#....;;;+'.@;;;&$........#-@*",
"*@-#....;;;#..@;;;$.........#-@*",
"*@-#....;;;$..%@!$..........#-@*",
"*@-#....;;;$...))...........#-@*",
"*@-#....;;;$................#-@*",
"*@-#....;;;>................#-@*",
"*@-#....-;;+................#-@*",
"*@-#....,;;;%...............#-@*",
"*@-#....$;;;+#......'%%)....#-@*",
"*@-#....'=;;;->'..)#&;+$....#-@*",
"*@-#.....'&;;;;;;;;;;;;#....#-@*",
"*@-#......%=;;;;;;;;;;+%....#-@*",
"*@-#.......)@+;;;;;;+!'.....#-@*",
"*@-#........)%$$$$$$%)......#-@*",
"*@-,'......................',-@*",
")>+&#'....................'#&+>)",
".'=;&,####################,&;='.",
".)#=+----------------------+=#).",
"..)'>@@@@@@@@@@@@@@@@@@@@@@>')..",
"....)**********************)...."};
